<svg width="85" height="85" viewBox="0 0 85 85" fill="none" xmlns="http://www.w3.org/2000/svg">
<g filter="url(#filter0_i_211_3663)">
<rect x="0.64209" y="0.404297" width="83.614" height="83.614" rx="14.2322" fill="url(#paint0_linear_211_3663)" fill-opacity="0.25"/>
</g>
<rect x="1.5316" y="1.29381" width="81.835" height="81.835" rx="13.3427" stroke="url(#paint1_linear_211_3663)" stroke-width="1.77902"/>
<path d="M57.2284 24.5246H27.3419C27.0428 24.5246 26.7619 24.6658 26.5878 24.9039L18.9921 35.2912C18.7339 35.6441 18.7674 36.1265 19.0717 36.4422L41.6107 59.8195C41.9767 60.1991 42.5936 60.1991 42.9595 59.8195L65.4986 36.4422C65.8029 36.1265 65.8363 35.6441 65.5783 35.2912L57.9825 24.9039C57.8084 24.6658 57.5276 24.5246 57.2284 24.5246V24.5246Z" fill="#79FF79"/>
<path d="M65.7504 35.8992H49.3447C54.0978 34.9844 58.0377 31.8517 59.9913 27.6472L65.5807 35.2912C65.7133 35.4727 65.7689 35.6887 65.7504 35.8992V35.8992Z" fill="#29E088"/>
<path d="M65.7448 35.8988C65.7281 36.083 65.6539 36.2618 65.526 36.4098C65.5158 36.4207 65.5055 36.4316 65.4953 36.4424L42.956 59.82C42.9541 59.8218 42.9513 59.8246 42.9495 59.8264C42.8465 59.9316 42.7241 60.007 42.5924 60.0524C42.5257 60.0751 42.4561 60.0905 42.3856 60.0978C42.317 60.1068 42.2466 60.1068 42.1779 60.0978C42.1074 60.0905 42.0379 60.0751 41.9711 60.0524C41.8395 60.007 41.717 59.9317 41.6141 59.8264C41.6122 59.8246 41.6094 59.8218 41.6076 59.82L19.0683 36.4424C19.0581 36.4316 19.0478 36.4206 19.0377 36.4098C18.9097 36.2618 18.8355 36.0831 18.8188 35.8988H65.7448Z" fill="#0CC166"/>
<path d="M65.7388 35.8992C65.7221 36.0834 65.6479 36.2622 65.5199 36.4101C65.5098 36.421 65.4995 36.4319 65.4893 36.4428L42.95 59.8203L42.9434 59.8267C42.8405 59.932 42.7181 60.0073 42.5864 60.0527C42.5197 60.0754 42.4501 60.0908 42.3796 60.0981C42.311 60.1071 42.2406 60.1071 42.1719 60.0981C42.1014 60.0908 42.0319 60.0754 41.9651 60.0527C41.8335 60.0073 41.711 59.932 41.6081 59.8267L41.6016 59.8203L35.8081 53.8108C45.1324 52.2517 52.4846 45.0351 54.0479 35.8991H65.7388V35.8992Z" fill="#04A550"/>
<path d="M58.6452 35.8988L42.5946 60.0522C42.5279 60.0749 42.4583 60.0903 42.3878 60.0976C42.3192 60.1067 42.2488 60.1067 42.1801 60.0976C42.1096 60.0903 42.0401 60.0749 41.9733 60.0522L25.9229 35.8988L31.656 24.5249H52.9121L58.6452 35.8988Z" fill="#C2FFC2"/>
<path d="M58.6452 35.8988L42.5946 60.0523C42.5279 60.075 42.4583 60.0904 42.3878 60.0977C42.3192 60.1067 42.2488 60.1067 42.1801 60.0977C42.1096 60.0904 42.0401 60.075 41.9733 60.0523L25.9229 35.8988H58.6452Z" fill="#29E088"/>
<path d="M58.6443 35.8993L42.5937 60.0528C42.527 60.0755 42.4574 60.091 42.3869 60.0982C42.3183 60.1073 42.2479 60.1073 42.1792 60.0982C42.1087 60.091 42.0392 60.0755 41.9724 60.0528L37.5801 53.4434C46.0569 51.3208 52.5922 44.4508 54.0553 35.8993H58.6443Z" fill="#0CC166"/>
<path d="M48.3649 35.8988L42.3888 60.0977C42.3202 60.1068 42.2498 60.1068 42.1811 60.0977L36.2051 35.8988L38.3358 24.5249H46.2341L48.3649 35.8988Z" fill="#79FF79"/>
<path d="M48.3649 35.8988L42.3888 60.0978C42.3202 60.1068 42.2498 60.1068 42.1811 60.0978L36.2051 35.8988H48.3649Z" fill="#0CC166"/>
<path d="M41.1478 27.534H29.3705C28.5214 27.534 27.833 26.8604 27.833 26.0293C27.833 25.1982 28.5213 24.5245 29.3705 24.5245H41.1478C41.9969 24.5245 42.6853 25.1981 42.6853 26.0293C42.6852 26.8603 41.9969 27.534 41.1478 27.534Z" fill="#C2FFC2"/>
<path d="M38.3351 24.5252L37.7713 27.5336H30.1401L31.6562 24.5252H38.3351Z" fill="#EEFFEE"/>
<path d="M44.85 50.1716L42.3984 60.098C42.3297 60.1071 42.2593 60.1071 42.1906 60.098L40.3306 52.5675C41.9375 51.9385 43.4526 51.1318 44.85 50.1716Z" fill="#04A550"/>
<path d="M58.6449 35.899H49.3447C52.1849 35.3509 54.7338 34.0114 56.7422 32.1247L58.6449 35.899Z" fill="#79FF79"/>
<defs>
<filter id="filter0_i_211_3663" x="0.64209" y="-1.37473" width="83.6143" height="85.3931" filterUnits="userSpaceOnUse" color-interpolation-filters="sRGB">
<feFlood flood-opacity="0" result="BackgroundImageFix"/>
<feBlend mode="normal" in="SourceGraphic" in2="BackgroundImageFix" result="shape"/>
<feColorMatrix in="SourceAlpha" type="matrix" values="0 0 0 0 0 0 0 0 0 0 0 0 0 0 0 0 0 0 127 0" result="hardAlpha"/>
<feMorphology radius="1.77902" operator="erode" in="SourceAlpha" result="effect1_innerShadow_211_3663"/>
<feOffset dy="-5.33707"/>
<feComposite in2="hardAlpha" operator="arithmetic" k2="-1" k3="1"/>
<feColorMatrix type="matrix" values="0 0 0 0 0.0319444 0 0 0 0 0.383333 0 0 0 0 0.0670833 0 0 0 1 0"/>
<feBlend mode="normal" in2="shape" result="effect1_innerShadow_211_3663"/>
</filter>
<linearGradient id="paint0_linear_211_3663" x1="42.4491" y1="3.08915" x2="42.4491" y2="83.6355" gradientUnits="userSpaceOnUse">
<stop stop-color="#1FD80F"/>
<stop offset="0.643701" stop-color="#44B13B"/>
<stop offset="1" stop-color="#61D958"/>
</linearGradient>
<linearGradient id="paint1_linear_211_3663" x1="42.4491" y1="3.08915" x2="42.4491" y2="83.6355" gradientUnits="userSpaceOnUse">
<stop stop-color="#1FD80F"/>
<stop offset="0.643701" stop-color="#44B13B"/>
<stop offset="1" stop-color="#61D958"/>
</linearGradient>
</defs>
</svg>
