<svg width="117" height="32" viewBox="0 0 117 32" fill="none" xmlns="http://www.w3.org/2000/svg">
<path d="M16.0776 31.6072C12.9324 31.6072 10.1765 31 7.80986 29.7855C5.44321 28.5399 3.62152 26.7805 2.34477 24.5073C1.06802 22.2341 0.429652 19.6027 0.429652 16.6133V0.35811H8.69736V16.7534C8.69736 19.0889 9.32016 20.8639 10.5658 22.0784C11.8114 23.2928 13.6486 23.9 16.0776 23.9C18.5376 23.9 20.3905 23.2928 21.6361 22.0784C22.8817 20.8639 23.5045 19.0889 23.5045 16.7534V0.35811H31.7722V16.6133C31.7722 19.6339 31.1183 22.2808 29.8104 24.554C28.5336 26.7961 26.7119 28.5399 24.3453 29.7855C21.9786 31 19.2227 31.6072 16.0776 31.6072ZM55.0065 0.35811C58.7744 0.35811 61.7172 1.26117 63.8347 3.0673C65.9834 4.84229 67.0577 7.30236 67.0577 10.4475V10.9146C67.0577 14.0598 65.9834 16.5354 63.8347 18.3415C61.7172 20.1477 58.7744 21.0507 55.0065 21.0507H43.6092V31H35.3415V0.35811H55.0065ZM54.8196 13.8574C56.0652 13.8574 57.015 13.6082 57.6689 13.11C58.3229 12.6118 58.6499 11.88 58.6499 10.9146V10.4475C58.6499 9.51331 58.3229 8.79708 57.6689 8.29884C57.015 7.8006 56.0652 7.55148 54.8196 7.55148H43.6092V13.8574H54.8196Z" fill="url(#paint0_linear_211_3800)"/>
<path d="M84.5065 14.4646V21.5645H68.5316V14.4646H84.5065ZM116.595 1.61929L104.917 15.6791L116.595 29.7388V31H107.019L99.265 21.4244L91.4644 31H81.8888V29.7388L93.5664 15.6791L81.8888 1.61929V0.35811H91.4644L99.265 9.9337L107.019 0.35811H116.595V1.61929Z" fill="url(#paint1_linear_211_3800)"/>
<defs>
<linearGradient id="paint0_linear_211_3800" x1="57.9828" y1="-11" x2="57.9828" y2="43" gradientUnits="userSpaceOnUse">
<stop stop-color="#D1E9FF"/>
<stop offset="1" stop-color="white"/>
</linearGradient>
<linearGradient id="paint1_linear_211_3800" x1="57.9828" y1="-11" x2="57.9828" y2="43" gradientUnits="userSpaceOnUse">
<stop stop-color="#119BFF"/>
<stop offset="1" stop-color="#00D1FF"/>
</linearGradient>
</defs>
</svg>
